<svg width="62" height="69" viewBox="0 0 62 69" fill="none" xmlns="http://www.w3.org/2000/svg">
<path d="M61.5967 62.4495L59.1632 19.2585H47.006V15.7716C47.006 7.07474 39.7778 0 30.8927 0C22.0076 0 14.7794 7.07508 14.7794 15.7716V19.2585H2.09606L0.00246006 62.6363L0.000340679 62.7115C-0.0168459 64.2725 0.616959 65.8046 1.7383 66.9131C2.85998 68.023 4.41835 68.6602 6.0139 68.6602H55.5923C57.2366 68.6602 58.829 67.9897 59.9601 66.8201C61.0909 65.6505 61.6875 64.0576 61.5967 62.4495ZM18.9821 15.7716C18.9821 9.34327 24.325 4.11343 30.8927 4.11343C37.4601 4.11343 42.8033 9.34327 42.8033 15.7716V19.2585H18.9817V15.7716H18.9821ZM56.9076 63.992C56.5663 64.3442 56.0872 64.5464 55.5919 64.5464H6.01356C5.53303 64.5464 5.06406 64.3548 4.72559 64.0198C4.39519 63.6936 4.20546 63.245 4.2023 62.7849L6.10439 23.3719H14.7787V28.5808C14.7787 29.7168 15.7194 30.6376 16.88 30.6376C18.0406 30.6376 18.9814 29.7168 18.9814 28.5808V23.3719H42.803V28.5808C42.803 29.7168 43.7437 30.6376 44.9043 30.6376C46.0649 30.6376 47.0053 29.7168 47.0053 28.5808V23.3719H55.1851L57.3993 62.6765C57.4277 63.1605 57.2482 63.6401 56.9076 63.992Z" fill="black"/>
</svg>
