<svg width="72" height="69" viewBox="0 0 72 69" fill="none" xmlns="http://www.w3.org/2000/svg">
<path d="M55.551 50.7029L70.5713 65.4044C71.3322 66.1492 71.3322 67.3568 70.5713 68.1016C69.8103 68.8464 68.5765 68.8464 67.8155 68.1016L52.7953 53.4001C47.2989 58.1494 40.0784 61.0313 32.1701 61.0313C14.9513 61.0313 0.992676 47.369 0.992676 30.5156C0.992676 13.6623 14.9513 0 32.1701 0C49.389 0 63.3476 13.6623 63.3476 30.5156C63.3476 38.256 60.4033 45.3232 55.551 50.7029ZM32.1701 57.2168C47.2366 57.2168 59.4504 45.2623 59.4504 30.5156C59.4504 15.769 47.2366 3.81446 32.1701 3.81446C17.1037 3.81446 4.88986 15.769 4.88986 30.5156C4.88986 45.2623 17.1037 57.2168 32.1701 57.2168Z" fill="black"/>
</svg>
