<svg width="35" height="9" viewBox="0 0 35 9" fill="none" xmlns="http://www.w3.org/2000/svg">
<path d="M20.2688 1.17383C21.8307 2.73602 21.8307 5.26869 20.2688 6.83056C18.7066 8.39274 16.1739 8.39274 14.6117 6.83056C13.0498 5.26869 13.0498 2.73602 14.6117 1.17383C16.1739 -0.388348 18.7066 -0.388348 20.2688 1.17383Z" fill="#9CA3AF"/>
<path d="M33.709 1.17144C35.2709 2.73366 35.2709 5.26642 33.709 6.82833C32.1468 8.39056 29.6141 8.39056 28.0519 6.82833C26.49 5.26642 26.49 2.73366 28.0519 1.17144C29.6141 -0.390478 32.1468 -0.390478 33.709 1.17144Z" fill="#9CA3AF"/>
<path d="M6.82858 1.17729C8.39047 2.7392 8.39047 5.27195 6.82858 6.83418C5.26636 8.39609 2.73364 8.39609 1.17142 6.83418C-0.390475 5.27195 -0.390475 2.7392 1.17142 1.17729C2.73364 -0.384942 5.26636 -0.384942 6.82858 1.17729Z" fill="#5FD788"/>
</svg>
